# xmcd
#
# Track frame offsets:
#	182
#	18197
#	31700
#	46470
#	64322
#	81815
#	98015
#	113855
#	132142
#	150122
#	165547
#	181795
#	198787
#	215687
#	233675
#	250915
#	266582
#	283017
#	301727
#	319067
#
# Disc length: 4462
#
# Revision: 3
# Processed by: cddbd v1.5.1PL0 Copyright (c) Steve Scherf et al.
# Submitted via: ExactAudioCopy v0.95a4
# Normalized: r2:DSETVAR1
#
DISCID=fa116c14
DTITLE=Various Artist - Dance Mix UK [CD 1)
DYEAR=1996
DGENRE=Dance
TTITLE0=Robert Miles - Children
TTITLE1=Kodoc - The Nighttrain
TTITLE2=Felix - Don't You Want Me
TTITLE3=Gat Decor - Passion
TTITLE4=Everything But The Girl - Missing
TTITLE5=M People - Search For The Hero
TTITLE6=Eternal - Just A Step From Heaven
TTITLE7=Salt 'n Pepper With En Vogue - Whatta Man
TTITLE8=Coolio Feat. I.v. - Gangsta's Paradise
TTITLE9=Montell Jordan - This Is How We Do It
TTITLE10=Mn8 - I've Got A Litle Something For You
TTITLE11=Reel 2 Real - I Like To Move It
TTITLE12=Stereo Mc's - Connected
TTITLE13=Ini Kamoze - Here Comes The Hotstepper
TTITLE14=Chaka Demus and Pliers - Twist And Shout
TTITLE15=Shabba Ranks - Mr. Loverman
TTITLE16=Pato Banton - Baby Come Back
TTITLE17=Big Mountain - Baby I Love Your Way
TTITLE18=China Black - Searching
TTITLE19=Ace Of Base - All That She Wants
EXTD=
EXTT0=
EXTT1=
EXTT2=
EXTT3=
EXTT4=
EXTT5=
EXTT6=
EXTT7=
EXTT8=
EXTT9=
EXTT10=
EXTT11=
EXTT12=
EXTT13=
EXTT14=
EXTT15=
EXTT16=
EXTT17=
EXTT18=
EXTT19=
PLAYORDER=
